<?xml version="1.0" standalone="no"?>
<!DOCTYPE svg PUBLIC "-//W3C//DTD SVG 20010904//EN"
 "http://www.w3.org/TR/2001/REC-SVG-20010904/DTD/svg10.dtd">
<svg version="1.0" xmlns="http://www.w3.org/2000/svg"
 width="907.000000pt" height="290.000000pt" viewBox="0 0 907.000000 290.000000"
 preserveAspectRatio="xMidYMid meet">

<g transform="translate(0.000000,290.000000) scale(0.100000,-0.100000)"
fill="#000000" stroke="none">
<path d="M8450 2870 c-11 -7 -14 -37 -11 -169 l2 -161 -158 0 c-87 0 -164 -4
-172 -9 -17 -11 -27 -171 -14 -221 l9 -35 165 -5 164 -5 1 -158 c0 -111 4
-161 13 -170 19 -19 239 -17 251 3 5 8 10 86 10 173 l0 157 164 0 c140 0 165
2 170 16 3 9 6 62 6 119 0 81 -3 107 -16 119 -13 13 -43 16 -170 16 l-154 0 0
151 c0 84 -5 159 -10 170 -10 17 -22 19 -123 19 -62 0 -119 -4 -127 -10z"/>
<path d="M70 1395 l0 -825 170 0 170 0 0 655 c0 517 3 655 13 655 28 -1 93
-48 122 -88 l30 -44 3 -589 2 -589 150 0 150 0 0 666 0 665 23 -6 c45 -14 97
-56 124 -102 l28 -48 3 -588 3 -587 170 0 170 0 -3 643 -3 642 -23 65 c-46
127 -125 219 -230 268 -56 27 -60 27 -309 30 l-253 3 0 -57 0 -58 -37 36 c-71
69 -105 78 -300 78 l-173 0 0 -825z"/>
<path d="M1814 2196 c-60 -28 -115 -80 -146 -139 l-23 -42 -3 -722 -3 -723
161 0 160 0 0 365 0 365 130 0 130 0 0 -365 0 -365 160 0 160 0 0 650 c0 639
0 650 -21 707 -27 72 -64 126 -122 180 -96 89 -179 113 -381 113 -138 0 -155
-2 -202 -24z m332 -302 c60 -44 68 -66 72 -185 l4 -109 -131 0 -131 0 0 161 0
161 79 -3 c61 -3 86 -9 107 -25z"/>
<path d="M2760 1395 l0 -825 165 0 165 0 0 365 0 365 30 0 c35 0 22 37 134
-400 l83 -325 171 -3 c95 -1 172 1 172 4 0 4 -45 180 -100 391 -55 211 -100
388 -100 394 0 5 25 34 55 64 105 102 140 221 133 445 -3 113 -7 132 -31 182
-30 61 -74 105 -140 140 -41 22 -51 23 -389 26 l-348 3 0 -826z m580 427 c0
-82 -4 -105 -22 -142 -32 -62 -90 -92 -173 -88 l-60 3 -3 163 -2 162 130 0
130 0 0 -98z"/>
<path d="M3880 1395 l0 -826 213 7 c237 7 263 13 335 78 22 21 55 59 72 87
l32 49 28 -44 c36 -57 115 -119 182 -144 43 -16 92 -21 261 -26 l207 -7 0 826
0 825 -170 0 -170 0 0 -650 c0 -626 -1 -650 -19 -650 -50 0 -134 93 -151 166
-5 21 -10 285 -10 587 l0 547 -150 0 -150 0 0 -573 0 -574 -23 -43 c-26 -49
-79 -96 -119 -105 l-28 -7 0 651 0 651 -170 0 -170 0 0 -825z"/>
<path d="M5612 2189 c-69 -34 -104 -71 -138 -144 l-24 -50 0 -712 0 -713 160
0 160 0 0 365 0 365 130 0 130 0 0 -365 0 -365 160 0 161 0 -3 663 -3 662 -31
65 c-57 119 -153 203 -275 241 -48 15 -92 19 -213 19 -150 0 -154 0 -214 -31z
m345 -295 c52 -39 67 -79 71 -191 l4 -103 -131 0 -131 0 0 161 0 161 79 -3
c61 -3 86 -9 108 -25z"/>
<path d="M6570 1395 l0 -825 160 0 160 0 2 363 3 362 31 3 c37 4 22 46 145
-435 l74 -293 173 0 172 0 -6 27 c-4 16 -51 195 -104 398 l-97 370 58 58 c35
35 71 85 91 125 l33 66 3 180 c3 117 0 194 -8 221 -17 62 -77 133 -140 169
l-55 31 -347 3 -348 3 0 -826z m579 418 c-4 -91 -8 -114 -27 -145 -32 -52 -94
-80 -169 -76 l-58 3 -3 163 -2 162 131 0 131 0 -3 -107z"/>
<path d="M7660 1395 l0 -825 165 0 165 0 0 825 0 825 -165 0 -165 0 0 -825z"/>
<path d="M51 158 c-24 -73 -46 -139 -48 -146 -4 -8 5 -12 26 -12 26 0 32 5 39
33 8 31 10 32 62 32 53 0 55 -1 64 -32 7 -28 14 -33 38 -33 19 0 28 5 26 13
-2 6 -23 72 -48 145 l-44 132 -36 0 -36 0 -43 -132z m103 15 l15 -53 -39 0
-38 0 14 48 c19 64 26 79 30 67 1 -5 10 -34 18 -62z"/>
<path d="M300 145 l0 -145 25 0 25 0 0 113 1 112 62 -112 c62 -112 62 -113
100 -113 l37 0 0 145 0 145 -25 0 c-24 0 -24 -1 -27 -107 l-3 -108 -60 108
c-60 106 -60 107 -97 107 l-38 0 0 -145z"/>
<path d="M730 145 l0 -145 25 0 25 0 0 145 0 145 -25 0 -25 0 0 -145z"/>
<path d="M860 145 c0 -138 1 -145 20 -145 18 0 20 8 22 112 l3 112 60 -112
c60 -112 60 -112 98 -112 l37 0 0 145 0 145 -25 0 c-24 0 -24 -1 -27 -106 l-3
-107 -59 107 c-57 101 -61 106 -93 106 l-33 0 0 -145z"/>
<path d="M1177 283 c-4 -3 -7 -69 -7 -145 l0 -138 25 0 c24 0 24 0 27 111 l3
110 60 -110 c60 -110 60 -111 98 -111 l37 0 0 145 0 145 -25 0 c-24 0 -24 -1
-27 -107 l-3 -108 -59 108 c-56 101 -61 107 -91 107 -17 0 -35 -3 -38 -7z"/>
<path d="M1531 264 c-64 -53 -67 -170 -6 -231 28 -28 40 -33 79 -33 93 0 136
46 136 147 0 99 -41 143 -135 143 -32 0 -51 -7 -74 -26z m135 -49 c8 -13 16
-45 16 -70 0 -62 -23 -95 -65 -95 -38 0 -50 7 -66 37 -22 43 -9 124 23 145 6
4 26 8 43 8 24 0 37 -7 49 -25z"/>
<path d="M1773 277 c3 -8 24 -73 46 -145 l42 -132 32 0 32 1 46 144 47 145
-28 0 c-31 0 -30 1 -80 -175 l-17 -60 -17 60 c-54 188 -49 175 -80 175 -19 0
-27 -4 -23 -13z"/>
<path d="M2061 158 c-24 -73 -46 -139 -48 -146 -4 -8 5 -12 24 -12 25 0 32 5
39 33 9 31 11 32 64 32 53 0 55 -1 64 -32 7 -28 14 -33 38 -33 19 0 28 5 26
13 -2 6 -23 72 -48 145 l-44 132 -36 0 -36 0 -43 -132z m103 15 l15 -53 -39 0
-38 0 14 48 c19 64 26 79 30 67 1 -5 10 -34 18 -62z"/>
<path d="M2260 265 c0 -22 4 -25 35 -25 l35 0 0 -120 0 -120 30 0 30 0 0 120
0 120 40 0 c36 0 40 3 40 25 l0 25 -105 0 -105 0 0 -25z"/>
<path d="M2510 145 l0 -145 30 0 30 0 0 145 0 145 -30 0 -30 0 0 -145z"/>
<path d="M2685 268 c-33 -26 -55 -75 -55 -123 0 -85 53 -145 127 -145 90 0
133 47 133 145 0 67 -20 109 -60 130 -43 22 -112 19 -145 -7z m129 -50 c10
-13 16 -43 16 -73 0 -65 -20 -95 -63 -95 -18 0 -37 4 -43 8 -45 29 -45 145 0
174 24 16 75 8 90 -14z"/>
<path d="M2960 145 l0 -145 26 0 27 0 -5 110 c-3 61 -3 108 0 105 3 -3 31 -52
62 -108 54 -99 56 -102 93 -105 l37 -3 0 145 0 146 -25 0 c-24 0 -24 -1 -27
-105 l-3 -106 -59 106 c-56 101 -59 105 -92 105 l-34 0 0 -145z"/>
<path d="M3380 145 l0 -145 59 0 c69 0 118 15 131 40 16 30 11 72 -10 95 -18
20 -19 23 -5 35 16 13 20 66 7 88 -12 18 -68 32 -129 32 l-53 0 0 -145z m134
72 c9 -15 7 -21 -9 -33 -11 -8 -31 -14 -45 -12 -20 2 -26 9 -28 36 -3 33 -3
33 34 30 22 -2 41 -10 48 -21z m-6 -99 c17 -17 15 -55 -4 -62 -9 -3 -29 -6
-45 -6 -26 0 -29 3 -29 33 0 19 3 37 7 40 11 11 58 8 71 -5z"/>
<path d="M3610 285 c0 -3 20 -46 45 -95 35 -71 45 -100 45 -140 0 -47 2 -50
25 -50 24 0 25 3 25 58 0 48 7 70 45 141 25 45 45 85 45 87 0 2 -13 4 -28 4
-24 0 -32 -8 -59 -62 l-31 -63 -28 63 c-24 55 -30 62 -56 62 -15 0 -28 -2 -28
-5z"/>
<path d="M3990 146 c0 -139 1 -146 20 -146 19 0 20 7 20 113 0 63 4 105 9 97
4 -8 21 -59 36 -112 26 -91 30 -98 54 -98 24 0 28 8 62 113 l37 112 1 -112 1
-113 25 0 25 0 0 145 0 145 -38 0 -38 0 -36 -112 c-20 -62 -39 -106 -42 -98
-3 8 -19 58 -34 110 l-28 95 -37 3 -37 3 0 -145z"/>
<path d="M4415 278 c-3 -7 -25 -73 -49 -146 l-45 -133 31 3 c26 2 33 9 40 36
8 31 10 32 62 32 51 0 53 -1 62 -32 8 -27 15 -34 40 -36 l31 -3 -50 145 -49
146 -34 0 c-19 0 -37 -6 -39 -12z m69 -130 c6 -27 5 -28 -29 -28 -19 0 -35 3
-35 6 0 3 7 31 16 62 l17 57 12 -35 c6 -19 15 -47 19 -62z"/>
<path d="M4630 146 l0 -146 25 0 c24 0 25 3 25 55 0 48 3 55 19 55 13 0 31
-18 53 -55 27 -45 37 -55 60 -55 16 0 28 2 28 5 0 3 -16 30 -37 60 l-36 55 23
25 c31 33 32 87 3 116 -16 17 -38 23 -92 27 l-71 5 0 -147z m124 72 c16 -26
-4 -52 -43 -56 -30 -3 -31 -2 -31 38 0 40 1 41 31 38 18 -2 37 -11 43 -20z"/>
<path d="M4854 273 c3 -10 19 -75 37 -145 l31 -128 33 0 32 0 24 104 c13 58
25 103 27 101 2 -1 10 -32 18 -66 33 -142 32 -139 67 -139 l33 0 32 138 c18
75 32 140 32 145 0 4 -11 7 -24 7 -23 0 -26 -7 -46 -97 -24 -110 -31 -133 -35
-118 -1 6 -13 56 -26 113 -22 99 -24 102 -50 102 -26 0 -28 -4 -54 -110 -15
-60 -28 -110 -30 -110 -1 0 -12 50 -25 110 -23 110 -23 110 -52 110 -23 0 -28
-4 -24 -17z"/>
<path d="M5267 153 c-26 -76 -47 -141 -47 -145 0 -5 13 -8 30 -8 25 0 30 4 36
35 l6 36 56 -3 c54 -3 56 -4 64 -35 7 -28 13 -33 38 -33 17 0 30 3 29 8 0 4
-21 68 -48 142 l-47 135 -35 3 -35 3 -47 -138z m104 22 l17 -55 -40 0 c-34 0
-39 3 -33 18 3 9 11 36 18 59 6 23 13 40 16 37 3 -2 13 -29 22 -59z"/>
<path d="M5520 145 l0 -145 30 0 c30 0 30 1 30 55 0 74 23 75 65 2 26 -44 36
-53 63 -55 l32 -3 -39 62 -40 63 25 22 c26 24 32 70 14 104 -13 24 -62 40
-126 40 l-54 0 0 -145z m114 89 c9 -4 16 -18 16 -34 0 -28 -15 -40 -51 -40
-16 0 -19 7 -19 40 0 41 13 50 54 34z"/>
<path d="M5780 145 l0 -145 30 0 30 0 0 145 0 145 -30 0 -30 0 0 -145z"/>
<path d="M6026 267 c-50 -50 -33 -96 54 -151 21 -13 35 -30 35 -41 0 -18 -7
-20 -57 -19 -54 1 -58 0 -58 -21 0 -27 17 -35 74 -35 61 0 96 29 96 79 0 41
-21 66 -77 95 -38 19 -45 29 -37 51 6 14 16 16 55 13 42 -4 49 -2 55 14 8 27
2 31 -60 36 -48 4 -57 1 -80 -21z"/>
<path d="M6278 274 c-39 -20 -58 -64 -58 -129 0 -98 43 -145 133 -145 52 0 93
27 113 76 29 70 7 166 -45 197 -35 21 -106 21 -143 1z m122 -49 c6 -8 14 -32
17 -54 11 -77 -15 -121 -72 -121 -45 0 -65 29 -65 95 0 68 20 95 69 95 22 0
44 -6 51 -15z"/>
<path d="M6540 145 l0 -145 30 0 30 0 0 60 0 60 45 0 c38 0 45 3 45 20 0 17
-7 20 -45 20 l-45 0 0 40 0 40 50 0 c47 0 50 2 50 25 0 25 -1 25 -80 25 l-80
0 0 -145z"/>
<path d="M6730 265 c0 -22 4 -25 40 -25 l40 0 0 -120 0 -120 25 0 25 0 0 120
0 120 40 0 c36 0 40 3 40 25 l0 25 -105 0 -105 0 0 -25z"/>
<path d="M6954 273 c3 -10 19 -75 37 -145 l31 -128 32 0 33 0 25 107 25 107
17 -70 c38 -155 34 -146 68 -142 l32 3 33 130 c18 72 33 136 33 143 0 6 -11
12 -25 12 -19 0 -26 -7 -31 -27 -6 -28 -26 -113 -39 -168 -6 -26 -11 -14 -34
80 -25 103 -28 110 -52 113 -26 3 -27 0 -55 -110 l-28 -113 -22 95 c-13 52
-23 103 -24 113 0 12 -8 17 -31 17 -24 0 -29 -3 -25 -17z"/>
<path d="M7366 153 c-25 -76 -46 -141 -46 -146 0 -4 13 -7 29 -7 25 0 30 5 35
35 7 35 7 35 61 35 52 0 54 -1 65 -35 10 -29 16 -35 41 -35 16 0 29 1 29 3 0
1 -22 65 -49 142 l-49 140 -35 3 -35 3 -46 -138z m111 -4 c5 -28 4 -29 -32
-29 -30 0 -36 3 -31 16 4 9 12 37 18 63 l12 46 13 -34 c8 -18 17 -46 20 -62z"/>
<path d="M7620 145 l0 -145 30 0 c30 0 30 0 30 56 0 47 3 55 17 52 10 -2 31
-27 48 -55 26 -47 34 -53 63 -53 l33 0 -41 61 -42 60 26 26 c28 28 33 58 15
97 -14 31 -56 46 -125 46 l-54 0 0 -145z m114 89 c19 -7 21 -45 4 -62 -7 -7
-22 -12 -35 -12 -20 0 -23 5 -23 40 0 41 13 50 54 34z"/>
<path d="M7880 145 l0 -145 80 0 c79 0 80 0 80 25 0 23 -3 25 -50 25 l-50 0 0
40 0 40 45 0 c38 0 45 3 45 20 0 17 -7 20 -45 20 -45 0 -45 0 -45 35 l0 35 50
0 c47 0 50 2 50 25 0 25 -1 25 -80 25 l-80 0 0 -145z"/>
</g>
</svg>
